<?xml version="1.0" standalone="no"?>
<!DOCTYPE svg PUBLIC "-//W3C//DTD SVG 20010904//EN"
 "http://www.w3.org/TR/2001/REC-SVG-20010904/DTD/svg10.dtd">
<svg version="1.0" xmlns="http://www.w3.org/2000/svg"
 width="512.000000pt" height="512.000000pt" viewBox="0 0 512.000000 512.000000"
 preserveAspectRatio="xMidYMid meet">

<g transform="translate(0.000000,512.000000) scale(0.100000,-0.100000)"
fill="#000000" stroke="none">
<path d="M1171 4904 c-490 -82 -886 -481 -966 -974 -22 -137 -23 -2594 -1
-2740 40 -259 160 -488 357 -675 182 -174 404 -281 654 -315 56 -8 477 -10
1395 -8 l1315 3 96 27 c286 79 501 220 662 434 117 156 200 350 229 534 19
125 19 2607 0 2730 -40 248 -157 476 -336 655 -179 178 -392 288 -640 330
-127 22 -2635 21 -2765 -1z m-172 -1164 l358 0 103 -182 c57 -101 121 -217
143 -258 22 -41 43 -77 46 -80 3 -3 16 -25 29 -50 12 -25 34 -65 48 -90 14
-25 60 -106 102 -180 77 -139 186 -333 241 -430 l31 -55 0 627 c0 466 3 629
12 634 6 4 21 -5 35 -22 13 -16 28 -34 33 -41 6 -7 10 -15 10 -18 0 -3 56 -94
125 -203 69 -108 144 -228 168 -265 23 -38 72 -116 109 -173 l68 -105 0 -286
c0 -285 0 -286 -23 -317 -13 -17 -26 -35 -28 -41 -2 -5 -25 -41 -50 -80 -130
-197 -164 -251 -169 -260 -3 -5 -23 -37 -45 -70 -22 -33 -42 -64 -45 -70 -5
-10 -16 -27 -147 -228 -68 -104 -88 -122 -107 -92 -24 41 -95 167 -153 275
-17 30 -63 114 -103 185 -40 72 -104 186 -141 255 -38 69 -73 132 -78 140 -6
8 -27 47 -47 85 -20 39 -40 75 -44 80 -5 6 -19 30 -32 55 -13 25 -71 128 -128
230 -57 102 -113 203 -124 225 l-21 40 -5 -808 -5 -808 -278 -2 -277 -2 0 23
c0 29 0 2360 0 2368 0 3 7 3 16 0 9 -3 177 -6 373 -6z m2082 -113 c114 -192
342 -572 347 -577 7 -8 14 2 192 295 109 178 136 222 193 313 l52 84 335 -1
c207 0 336 -3 338 -9 2 -6 -15 -36 -36 -68 -22 -33 -75 -114 -118 -181 -189
-293 -322 -497 -453 -698 -25 -38 -48 -74 -51 -80 -3 -5 -22 -36 -42 -67 l-38
-57 38 -58 c60 -91 242 -378 285 -448 19 -31 85 -135 187 -295 51 -80 105
-164 119 -187 14 -24 50 -79 79 -124 28 -44 52 -88 52 -97 0 -16 -30 -17 -352
-15 l-352 2 -22 41 c-12 22 -26 45 -32 52 -5 7 -22 36 -37 63 -16 28 -31 52
-34 55 -3 3 -17 25 -30 50 -14 25 -32 56 -42 70 -9 14 -67 109 -129 213 -62
103 -116 187 -120 187 -7 0 -84 -120 -144 -223 -10 -17 -33 -54 -51 -82 -18
-27 -38 -61 -45 -75 -7 -14 -16 -27 -19 -30 -11 -8 -71 -109 -71 -119 0 -5 -6
-14 -14 -20 -8 -7 -22 -26 -31 -44 -9 -18 -31 -56 -50 -86 l-33 -53 -336 -2
c-367 -1 -355 -3 -318 56 20 31 182 281 260 399 28 44 52 82 52 85 0 3 6 11
13 19 6 7 53 76 102 154 50 78 126 196 170 264 44 67 95 146 113 174 l34 53
-44 67 c-25 38 -58 90 -74 117 -16 26 -40 66 -54 87 -14 21 -83 131 -154 244
-70 113 -135 212 -142 220 -8 7 -14 17 -14 22 0 4 -45 78 -100 163 -110 172
-150 238 -150 251 0 8 670 18 695 11 6 -2 40 -53 76 -115z"/>
</g>
</svg>
