<?xml version="1.0" encoding="UTF-8"?>
<!DOCTYPE svg PUBLIC "-//W3C//DTD SVG 1.1//EN" "http://www.w3.org/Graphics/SVG/1.1/DTD/svg11.dtd">
<svg xmlns="http://www.w3.org/2000/svg" version="1.1" width="512px" height="512px" style="shape-rendering:geometricPrecision; text-rendering:geometricPrecision; image-rendering:optimizeQuality; fill-rule:evenodd; clip-rule:evenodd" xmlns:xlink="http://www.w3.org/1999/xlink">
<g><path style="opacity:0.97" fill="#0077e5" d="M 126.5,18.5 C 215.19,18.0207 303.857,18.5207 392.5,20C 436.462,28.5607 467.295,53.394 485,94.5C 488.434,103.902 490.767,113.568 492,123.5C 492.667,211.833 492.667,300.167 492,388.5C 485.24,434.251 460.74,466.418 418.5,485C 407.535,489.241 396.201,491.908 384.5,493C 298.5,493.667 212.5,493.667 126.5,493C 78.0001,486.819 44.1668,461.319 25,416.5C 21.4015,406.106 19.0681,395.44 18,384.5C 17.3333,298.833 17.3333,213.167 18,127.5C 23.3526,80.9309 47.186,47.7642 89.5,28C 101.526,23.102 113.859,19.9353 126.5,18.5 Z"/></g>
<g><path style="opacity:1" fill="#003d75" d="M 132.5,34.5 C 213.501,34.3333 294.501,34.5 375.5,35C 420.71,41.8767 452.21,66.3767 470,108.5C 472.964,117.28 474.964,126.28 476,135.5C 476.667,215.5 476.667,295.5 476,375.5C 469.303,423.072 443.47,455.239 398.5,472C 390.973,474.2 383.306,475.867 375.5,477C 294.5,477.667 213.5,477.667 132.5,477C 74.0028,465.172 41.1695,429.672 34,370.5C 33.02,289.807 33.3533,209.14 35,128.5C 47.4207,76.2446 79.9207,44.9112 132.5,34.5 Z"/></g>
<g><path style="opacity:1" fill="#0178e5" d="M 136.5,43.5 C 215.834,43.3333 295.167,43.5 374.5,44C 425.821,53.322 456.655,83.4887 467,134.5C 467.667,213.167 467.667,291.833 467,370.5C 459.689,425.812 428.522,458.312 373.5,468C 294.5,468.667 215.5,468.667 136.5,468C 94.3185,461.145 65.1518,437.979 49,398.5C 46.5669,391.001 44.9002,383.334 44,375.5C 43.0167,293.136 43.3501,210.803 45,128.5C 57.4267,80.5691 87.9267,52.2357 136.5,43.5 Z"/></g>
<g><path style="opacity:1" fill="#2089e9" d="M 300.5,137.5 C 277.167,137.5 253.833,137.5 230.5,137.5C 230.5,138.5 230.5,139.5 230.5,140.5C 229.566,139.432 229.232,138.099 229.5,136.5C 253.339,136.169 277.006,136.502 300.5,137.5 Z"/></g>
<g><path style="opacity:1" fill="#258be9" d="M 452.5,140.5 C 452.5,139.5 452.5,138.5 452.5,137.5C 430.327,137.169 408.327,137.503 386.5,138.5C 385.833,138.833 385.167,139.167 384.5,139.5C 384.5,138.5 384.5,137.5 384.5,136.5C 407.5,136.5 430.5,136.5 453.5,136.5C 453.768,138.099 453.434,139.432 452.5,140.5 Z"/></g>
<g><path style="opacity:1" fill="#90c4f3" d="M 300.5,137.5 C 300.5,137.833 300.5,138.167 300.5,138.5C 277.142,137.844 254.142,138.51 231.5,140.5C 231.167,140.5 230.833,140.5 230.5,140.5C 230.5,139.5 230.5,138.5 230.5,137.5C 253.833,137.5 277.167,137.5 300.5,137.5 Z"/></g>
<g><path style="opacity:1" fill="#93c5f4" d="M 386.5,138.5 C 408.327,137.503 430.327,137.169 452.5,137.5C 452.5,138.5 452.5,139.5 452.5,140.5C 452.167,140.5 451.833,140.5 451.5,140.5C 430.192,138.511 408.526,137.844 386.5,138.5 Z"/></g>
<g><path style="opacity:1" fill="#fdfefe" d="M 300.5,138.5 C 300.738,140.404 301.738,141.738 303.5,142.5C 303.5,142.833 303.5,143.167 303.5,143.5C 303.725,146.546 305.058,148.879 307.5,150.5C 310.004,153.503 312.004,156.836 313.5,160.5C 313.427,162.027 314.094,163.027 315.5,163.5C 316.338,163.842 316.672,164.508 316.5,165.5C 316.427,167.027 317.094,168.027 318.5,168.5C 319.89,169.899 320.89,171.566 321.5,173.5C 321.427,175.027 322.094,176.027 323.5,176.5C 323.241,178.989 324.241,180.656 326.5,181.5C 328.766,185.458 331.099,189.458 333.5,193.5C 333.755,195.967 334.755,197.967 336.5,199.5C 337.167,199.5 337.5,199.833 337.5,200.5C 341.617,211.259 345.284,210.926 348.5,199.5C 349.803,196.569 351.469,193.902 353.5,191.5C 355.408,190.514 356.408,188.848 356.5,186.5C 357.473,184.851 358.473,183.184 359.5,181.5C 361.104,180.713 361.771,179.38 361.5,177.5C 362.167,177.5 362.5,177.167 362.5,176.5C 363.906,176.027 364.573,175.027 364.5,173.5C 365.974,172.564 366.974,171.23 367.5,169.5C 368.502,167.989 369.169,166.322 369.5,164.5C 371.587,163.415 372.92,161.749 373.5,159.5C 374.853,156.795 376.186,154.128 377.5,151.5C 381.742,148.012 384.742,143.679 386.5,138.5C 408.526,137.844 430.192,138.511 451.5,140.5C 450.833,141.5 450.167,142.5 449.5,143.5C 447.801,145.566 446.468,147.9 445.5,150.5C 444.094,150.973 443.427,151.973 443.5,153.5C 442.094,153.973 441.427,154.973 441.5,156.5C 440.094,156.973 439.427,157.973 439.5,159.5C 436.806,162.876 434.473,166.543 432.5,170.5C 431.094,170.973 430.427,171.973 430.5,173.5C 428.674,175.147 427.34,177.147 426.5,179.5C 425.662,179.842 425.328,180.508 425.5,181.5C 424.094,181.973 423.427,182.973 423.5,184.5C 422.094,184.973 421.427,185.973 421.5,187.5C 420.094,187.973 419.427,188.973 419.5,190.5C 417.75,191.659 416.75,193.326 416.5,195.5C 413.094,200.14 409.594,204.807 406,209.5C 404.604,212.064 403.437,214.731 402.5,217.5C 402.167,217.5 401.833,217.5 401.5,217.5C 399.412,219.336 398.079,221.669 397.5,224.5C 396.094,224.973 395.427,225.973 395.5,227.5C 394.662,227.842 394.328,228.508 394.5,229.5C 392.738,230.262 391.738,231.596 391.5,233.5C 389.674,235.147 388.34,237.147 387.5,239.5C 386.662,239.842 386.328,240.508 386.5,241.5C 384.952,241.821 384.285,242.821 384.5,244.5C 382.738,245.262 381.738,246.596 381.5,248.5C 380.128,249.888 379.128,251.555 378.5,253.5C 378.747,254.713 379.414,255.38 380.5,255.5C 388.853,268.358 396.853,281.358 404.5,294.5C 404.738,296.404 405.738,297.738 407.5,298.5C 407.427,300.027 408.094,301.027 409.5,301.5C 410.11,303.434 411.11,305.101 412.5,306.5C 412.427,308.027 413.094,309.027 414.5,309.5C 414.328,310.492 414.662,311.158 415.5,311.5C 416.468,314.1 417.801,316.434 419.5,318.5C 421.172,321.213 422.838,323.88 424.5,326.5C 425.376,326.369 426.043,326.702 426.5,327.5C 428.523,331.181 430.523,334.847 432.5,338.5C 434.152,340.471 435.319,342.804 436,345.5C 437.359,346.365 438.526,347.365 439.5,348.5C 440.345,349.671 441.011,351.005 441.5,352.5C 441.427,354.027 442.094,355.027 443.5,355.5C 446.93,359.36 449.597,363.693 451.5,368.5C 451.427,370.027 452.094,371.027 453.5,371.5C 453.414,372.496 453.748,373.329 454.5,374C 431.502,374.5 408.502,374.667 385.5,374.5C 385.573,372.973 384.906,371.973 383.5,371.5C 383.25,369.326 382.25,367.659 380.5,366.5C 380.573,364.973 379.906,363.973 378.5,363.5C 378.245,361.033 377.245,359.033 375.5,357.5C 374.154,355.463 372.82,353.463 371.5,351.5C 371.573,349.973 370.906,348.973 369.5,348.5C 369.672,347.508 369.338,346.842 368.5,346.5C 367.374,342.046 365.041,338.379 361.5,335.5C 360.416,332.996 359.083,330.663 357.5,328.5C 355.284,323.607 352.618,318.941 349.5,314.5C 349.573,312.973 348.906,311.973 347.5,311.5C 345.828,308.787 344.162,306.12 342.5,303.5C 342.585,302.005 341.919,301.005 340.5,300.5C 338.712,301.283 337.712,302.616 337.5,304.5C 335.412,306.336 334.079,308.669 333.5,311.5C 331.75,312.659 330.75,314.326 330.5,316.5C 328.75,317.659 327.75,319.326 327.5,321.5C 326.094,321.973 325.427,322.973 325.5,324.5C 323,327.494 321,330.827 319.5,334.5C 318.094,334.973 317.427,335.973 317.5,337.5C 316.094,337.973 315.427,338.973 315.5,340.5C 313,343.494 311,346.827 309.5,350.5C 308.094,350.973 307.427,351.973 307.5,353.5C 305.782,355.223 304.449,357.223 303.5,359.5C 301.914,361.67 300.58,364.004 299.5,366.5C 297.755,368.033 296.755,370.033 296.5,372.5C 296.167,372.5 295.833,372.5 295.5,372.5C 294.662,372.842 294.328,373.508 294.5,374.5C 272.141,375.156 250.141,374.489 228.5,372.5C 231.833,367.5 235.167,362.5 238.5,357.5C 240.262,356.738 241.262,355.404 241.5,353.5C 243.408,352.514 244.408,350.848 244.5,348.5C 245.906,348.027 246.573,347.027 246.5,345.5C 247.906,345.027 248.573,344.027 248.5,342.5C 250.408,341.514 251.408,339.848 251.5,337.5C 252.449,335.223 253.782,333.223 255.5,331.5C 257.218,329.777 258.551,327.777 259.5,325.5C 260.473,323.851 261.473,322.184 262.5,320.5C 264.408,319.514 265.408,317.848 265.5,315.5C 267.262,314.738 268.262,313.404 268.5,311.5C 269.338,311.158 269.672,310.492 269.5,309.5C 273.156,306.197 275.822,302.197 277.5,297.5C 278.687,295.928 279.687,294.261 280.5,292.5C 282.822,291.198 284.155,289.198 284.5,286.5C 286.262,285.738 287.262,284.404 287.5,282.5C 288.473,280.851 289.473,279.184 290.5,277.5C 291.643,277.092 292.643,276.425 293.5,275.5C 294.801,271.896 296.467,268.563 298.5,265.5C 298.328,264.508 298.662,263.842 299.5,263.5C 300.906,263.027 301.573,262.027 301.5,260.5C 304.794,258.044 305.127,255.377 302.5,252.5C 302.573,250.973 301.906,249.973 300.5,249.5C 300.672,248.508 300.338,247.842 299.5,247.5C 297.858,243.879 295.858,240.546 293.5,237.5C 292.079,234.991 290.412,232.657 288.5,230.5C 287.532,227.9 286.199,225.566 284.5,223.5C 284.068,222.29 283.401,221.29 282.5,220.5C 280.462,217.474 278.462,214.474 276.5,211.5C 276.068,210.29 275.401,209.29 274.5,208.5C 274.573,206.973 273.906,205.973 272.5,205.5C 272.672,204.508 272.338,203.842 271.5,203.5C 271.573,201.973 270.906,200.973 269.5,200.5C 269.25,198.326 268.25,196.659 266.5,195.5C 265.89,193.566 264.89,191.899 263.5,190.5C 257.595,181.7 251.929,172.7 246.5,163.5C 245.89,161.566 244.89,159.899 243.5,158.5C 239.885,152.223 235.885,146.223 231.5,140.5C 254.142,138.51 277.142,137.844 300.5,138.5 Z"/></g>
<g><path style="opacity:1" fill="#fdfefe" d="M 134.5,138.5 C 135.167,138.833 135.833,139.167 136.5,139.5C 137.773,141.713 138.773,144.046 139.5,146.5C 139.755,148.967 140.755,150.967 142.5,152.5C 142.427,154.027 143.094,155.027 144.5,155.5C 144.755,157.967 145.755,159.967 147.5,161.5C 147.427,163.027 148.094,164.027 149.5,164.5C 149.427,166.027 150.094,167.027 151.5,167.5C 151.328,168.492 151.662,169.158 152.5,169.5C 152.755,171.967 153.755,173.967 155.5,175.5C 156.338,175.842 156.672,176.508 156.5,177.5C 156.738,179.404 157.738,180.738 159.5,181.5C 161.772,185.046 163.772,188.713 165.5,192.5C 165.755,194.967 166.755,196.967 168.5,198.5C 173.846,205.853 178.18,213.853 181.5,222.5C 181.889,226.284 183.556,229.284 186.5,231.5C 188.218,233.223 189.551,235.223 190.5,237.5C 190.241,239.989 191.241,241.656 193.5,242.5C 194.5,244.5 195.5,246.5 196.5,248.5C 196.427,250.027 197.094,251.027 198.5,251.5C 201.683,257.033 204.683,262.699 207.5,268.5C 207.5,270.5 208.5,271.5 210.5,271.5C 211.333,229.669 211.833,187.669 212,145.5C 212.383,146.056 212.883,146.389 213.5,146.5C 219.67,155.588 225.67,164.922 231.5,174.5C 231.725,177.546 233.058,179.879 235.5,181.5C 237.192,183.205 238.525,185.205 239.5,187.5C 239.427,189.027 240.094,190.027 241.5,190.5C 241.427,192.027 242.094,193.027 243.5,193.5C 246,196.494 248,199.827 249.5,203.5C 249.427,205.027 250.094,206.027 251.5,206.5C 252.401,207.29 253.068,208.29 253.5,209.5C 253.427,211.027 254.094,212.027 255.5,212.5C 255.427,214.027 256.094,215.027 257.5,215.5C 259.197,217.553 260.531,219.887 261.5,222.5C 261.892,224.179 262.392,225.846 263,227.5C 263.5,246.497 263.667,265.497 263.5,284.5C 262.326,285.514 261.66,286.847 261.5,288.5C 257.719,292.624 254.719,297.291 252.5,302.5C 250.738,303.262 249.738,304.596 249.5,306.5C 248.326,307.514 247.66,308.847 247.5,310.5C 245.413,311.585 244.08,313.251 243.5,315.5C 242.326,316.514 241.66,317.847 241.5,319.5C 240.094,319.973 239.427,320.973 239.5,322.5C 237.952,322.821 237.285,323.821 237.5,325.5C 233.844,328.803 231.178,332.803 229.5,337.5C 228.542,337.953 227.708,338.619 227,339.5C 224.734,343.48 222.568,347.48 220.5,351.5C 219.094,351.973 218.427,352.973 218.5,354.5C 215.978,358.102 213.645,361.769 211.5,365.5C 209.75,366.659 208.75,368.326 208.5,370.5C 207.167,371.833 205.833,371.833 204.5,370.5C 203.921,367.669 202.588,365.336 200.5,363.5C 200.275,360.454 198.942,358.121 196.5,356.5C 196.011,355.005 195.345,353.671 194.5,352.5C 194.573,350.973 193.906,349.973 192.5,349.5C 192.245,347.033 191.245,345.033 189.5,343.5C 188.069,340.299 186.403,337.299 184.5,334.5C 181.894,330.287 179.561,325.953 177.5,321.5C 177.573,319.973 176.906,318.973 175.5,318.5C 173.736,314.634 171.736,310.967 169.5,307.5C 168.492,305.456 167.492,303.456 166.5,301.5C 165.201,298.605 163.535,295.938 161.5,293.5C 161.771,291.62 161.104,290.287 159.5,289.5C 159.672,288.508 159.338,287.842 158.5,287.5C 158.573,285.973 157.906,284.973 156.5,284.5C 156.408,282.152 155.408,280.486 153.5,279.5C 153.771,277.62 153.104,276.287 151.5,275.5C 150.296,271.873 148.629,268.54 146.5,265.5C 146.573,263.973 145.906,262.973 144.5,262.5C 143.247,258.389 141.247,254.723 138.5,251.5C 137.662,251.158 137.328,250.492 137.5,249.5C 137.34,247.847 136.674,246.514 135.5,245.5C 134.833,245.5 134.5,245.167 134.5,244.5C 133.193,241.22 131.527,238.22 129.5,235.5C 129.672,234.508 129.338,233.842 128.5,233.5C 128.573,231.973 127.906,230.973 126.5,230.5C 126.104,227.279 124.771,224.612 122.5,222.5C 121.89,220.566 120.89,218.899 119.5,217.5C 119.267,215.938 118.6,214.605 117.5,213.5C 117.631,212.624 117.298,211.957 116.5,211.5C 115.5,265.829 115.167,320.163 115.5,374.5C 97.5,374.5 79.5,374.5 61.5,374.5C 61.5,295.833 61.5,217.167 61.5,138.5C 85.8333,138.5 110.167,138.5 134.5,138.5 Z"/></g>
<g><path style="opacity:1" fill="#70b0f0" d="M 300.5,138.5 C 302.262,139.262 303.262,140.596 303.5,142.5C 301.738,141.738 300.738,140.404 300.5,138.5 Z"/></g>
<g><path style="opacity:1" fill="#2089e9" d="M 136.5,139.5 C 135.833,139.167 135.167,138.833 134.5,138.5C 110.006,137.502 85.339,137.169 60.5,137.5C 60.5,216.833 60.5,296.167 60.5,375.5C 78.8333,375.5 97.1667,375.5 115.5,375.5C 115.833,375.5 116.167,375.5 116.5,375.5C 97.674,376.497 78.674,376.83 59.5,376.5C 59.5,296.5 59.5,216.5 59.5,136.5C 85.1667,136.5 110.833,136.5 136.5,136.5C 136.5,137.5 136.5,138.5 136.5,139.5 Z"/></g>
<g><path style="opacity:1" fill="#90c4f4" d="M 134.5,138.5 C 110.167,138.5 85.8333,138.5 61.5,138.5C 61.5,217.167 61.5,295.833 61.5,374.5C 79.5,374.5 97.5,374.5 115.5,374.5C 115.5,374.833 115.5,375.167 115.5,375.5C 97.1667,375.5 78.8333,375.5 60.5,375.5C 60.5,296.167 60.5,216.833 60.5,137.5C 85.339,137.169 110.006,137.502 134.5,138.5 Z"/></g>
<g><path style="opacity:1" fill="#b4d5f7" d="M 303.5,143.5 C 305.199,145.566 306.532,147.9 307.5,150.5C 305.058,148.879 303.725,146.546 303.5,143.5 Z"/></g>
<g><path style="opacity:1" fill="#6aa9ef" d="M 449.5,143.5 C 449.275,146.546 447.942,148.879 445.5,150.5C 446.468,147.9 447.801,145.566 449.5,143.5 Z"/></g>
<g><path style="opacity:1" fill="#75b0f0" d="M 386.5,138.5 C 384.742,143.679 381.742,148.012 377.5,151.5C 379.567,147.315 381.9,143.315 384.5,139.5C 385.167,139.167 385.833,138.833 386.5,138.5 Z"/></g>
<g><path style="opacity:1" fill="#a0caf5" d="M 139.5,146.5 C 141.245,148.033 142.245,150.033 142.5,152.5C 140.755,150.967 139.755,148.967 139.5,146.5 Z"/></g>
<g><path style="opacity:1" fill="#74b3f1" d="M 445.5,150.5 C 445.573,152.027 444.906,153.027 443.5,153.5C 443.427,151.973 444.094,150.973 445.5,150.5 Z"/></g>
<g><path style="opacity:1" fill="#98c6f4" d="M 142.5,152.5 C 143.906,152.973 144.573,153.973 144.5,155.5C 143.094,155.027 142.427,154.027 142.5,152.5 Z"/></g>
<g><path style="opacity:1" fill="#72b2f0" d="M 443.5,153.5 C 443.573,155.027 442.906,156.027 441.5,156.5C 441.427,154.973 442.094,153.973 443.5,153.5 Z"/></g>
<g><path style="opacity:1" fill="#6fb0f0" d="M 441.5,156.5 C 441.573,158.027 440.906,159.027 439.5,159.5C 439.427,157.973 440.094,156.973 441.5,156.5 Z"/></g>
<g><path style="opacity:1" fill="#a1cbf5" d="M 144.5,155.5 C 146.245,157.033 147.245,159.033 147.5,161.5C 145.755,159.967 144.755,157.967 144.5,155.5 Z"/></g>
<g><path style="opacity:1" fill="#62a4ee" d="M 243.5,158.5 C 244.89,159.899 245.89,161.566 246.5,163.5C 244.241,162.656 243.241,160.989 243.5,158.5 Z"/></g>
<g><path style="opacity:1" fill="#8fc0f3" d="M 373.5,159.5 C 372.92,161.749 371.587,163.415 369.5,164.5C 370.08,162.251 371.413,160.585 373.5,159.5 Z"/></g>
<g><path style="opacity:1" fill="#98c6f4" d="M 313.5,160.5 C 314.906,160.973 315.573,161.973 315.5,163.5C 314.094,163.027 313.427,162.027 313.5,160.5 Z"/></g>
<g><path style="opacity:1" fill="#9bc9f5" d="M 147.5,161.5 C 148.906,161.973 149.573,162.973 149.5,164.5C 148.094,164.027 147.427,163.027 147.5,161.5 Z"/></g>
<g><path style="opacity:1" fill="#6eb0f0" d="M 149.5,164.5 C 150.906,164.973 151.573,165.973 151.5,167.5C 150.094,167.027 149.427,166.027 149.5,164.5 Z"/></g>
<g><path style="opacity:1" fill="#e5f1fc" d="M 210.5,144.5 C 212.179,144.285 213.179,144.952 213.5,146.5C 212.883,146.389 212.383,146.056 212,145.5C 211.833,187.669 211.333,229.669 210.5,271.5C 210.5,229.167 210.5,186.833 210.5,144.5 Z"/></g>
<g><path style="opacity:1" fill="#84bef3" d="M 210.5,144.5 C 210.5,186.833 210.5,229.167 210.5,271.5C 208.5,271.5 207.5,270.5 207.5,268.5C 208.117,268.611 208.617,268.944 209,269.5C 209.167,227.665 209.667,185.998 210.5,144.5 Z"/></g>
<g><path style="opacity:1" fill="#8dc1f3" d="M 316.5,165.5 C 317.906,165.973 318.573,166.973 318.5,168.5C 317.094,168.027 316.427,167.027 316.5,165.5 Z"/></g>
<g><path style="opacity:1" fill="#8cc0f3" d="M 367.5,169.5 C 366.974,171.23 365.974,172.564 364.5,173.5C 364.554,171.368 365.554,170.035 367.5,169.5 Z"/></g>
<g><path style="opacity:1" fill="#65abef" d="M 432.5,170.5 C 432.573,172.027 431.906,173.027 430.5,173.5C 430.427,171.973 431.094,170.973 432.5,170.5 Z"/></g>
<g><path style="opacity:1" fill="#95c4f4" d="M 152.5,169.5 C 154.245,171.033 155.245,173.033 155.5,175.5C 153.755,173.967 152.755,171.967 152.5,169.5 Z"/></g>
<g><path style="opacity:1" fill="#7bb6f1" d="M 321.5,173.5 C 322.906,173.973 323.573,174.973 323.5,176.5C 322.094,176.027 321.427,175.027 321.5,173.5 Z"/></g>
<g><path style="opacity:1" fill="#80baf2" d="M 364.5,173.5 C 364.573,175.027 363.906,176.027 362.5,176.5C 362.427,174.973 363.094,173.973 364.5,173.5 Z"/></g>
<g><path style="opacity:1" fill="#73b2f0" d="M 430.5,173.5 C 430.155,176.198 428.822,178.198 426.5,179.5C 427.34,177.147 428.674,175.147 430.5,173.5 Z"/></g>
<g><path style="opacity:1" fill="#89bdf3" d="M 156.5,177.5 C 158.262,178.262 159.262,179.596 159.5,181.5C 157.738,180.738 156.738,179.404 156.5,177.5 Z"/></g>
<g><path style="opacity:1" fill="#bcdaf8" d="M 231.5,174.5 C 233.199,176.566 234.532,178.9 235.5,181.5C 233.058,179.879 231.725,177.546 231.5,174.5 Z"/></g>
<g><path style="opacity:1" fill="#aed1f7" d="M 323.5,176.5 C 324.89,177.899 325.89,179.566 326.5,181.5C 324.241,180.656 323.241,178.989 323.5,176.5 Z"/></g>
<g><path style="opacity:1" fill="#81b9f2" d="M 361.5,177.5 C 361.771,179.38 361.104,180.713 359.5,181.5C 359.66,179.847 360.326,178.514 361.5,177.5 Z"/></g>
<g><path style="opacity:1" fill="#6aadf0" d="M 425.5,181.5 C 425.573,183.027 424.906,184.027 423.5,184.5C 423.427,182.973 424.094,181.973 425.5,181.5 Z"/></g>
<g><path style="opacity:1" fill="#6caef0" d="M 423.5,184.5 C 423.573,186.027 422.906,187.027 421.5,187.5C 421.427,185.973 422.094,184.973 423.5,184.5 Z"/></g>
<g><path style="opacity:1" fill="#6aadf0" d="M 421.5,187.5 C 421.573,189.027 420.906,190.027 419.5,190.5C 419.427,188.973 420.094,187.973 421.5,187.5 Z"/></g>
<g><path style="opacity:1" fill="#9ecbf5" d="M 239.5,187.5 C 240.906,187.973 241.573,188.973 241.5,190.5C 240.094,190.027 239.427,189.027 239.5,187.5 Z"/></g>
<g><path style="opacity:1" fill="#a7cef6" d="M 356.5,186.5 C 356.408,188.848 355.408,190.514 353.5,191.5C 353.75,189.326 354.75,187.659 356.5,186.5 Z"/></g>
<g><path style="opacity:1" fill="#90c2f4" d="M 241.5,190.5 C 242.906,190.973 243.573,191.973 243.5,193.5C 242.094,193.027 241.427,192.027 241.5,190.5 Z"/></g>
<g><path style="opacity:1" fill="#6aacef" d="M 419.5,190.5 C 419.25,192.674 418.25,194.341 416.5,195.5C 416.75,193.326 417.75,191.659 419.5,190.5 Z"/></g>
<g><path style="opacity:1" fill="#549cec" d="M 263.5,190.5 C 264.89,191.899 265.89,193.566 266.5,195.5C 264.241,194.656 263.241,192.989 263.5,190.5 Z"/></g>
<g><path style="opacity:1" fill="#83baf2" d="M 165.5,192.5 C 167.245,194.033 168.245,196.033 168.5,198.5C 166.755,196.967 165.755,194.967 165.5,192.5 Z"/></g>
<g><path style="opacity:1" fill="#589eed" d="M 266.5,195.5 C 268.25,196.659 269.25,198.326 269.5,200.5C 267.241,199.656 266.241,197.989 266.5,195.5 Z"/></g>
<g><path style="opacity:1" fill="#b7d7f7" d="M 333.5,193.5 C 335.245,195.033 336.245,197.033 336.5,199.5C 334.755,197.967 333.755,195.967 333.5,193.5 Z"/></g>
<g><path style="opacity:1" fill="#549ded" d="M 416.5,195.5 C 415.355,197.712 414.355,200.045 413.5,202.5C 409.362,207.283 405.695,212.283 402.5,217.5C 403.437,214.731 404.604,212.064 406,209.5C 409.594,204.807 413.094,200.14 416.5,195.5 Z"/></g>
<g><path style="opacity:1" fill="#69acef" d="M 269.5,200.5 C 270.906,200.973 271.573,201.973 271.5,203.5C 270.094,203.027 269.427,202.027 269.5,200.5 Z"/></g>
<g><path style="opacity:1" fill="#a0cbf5" d="M 249.5,203.5 C 250.906,203.973 251.573,204.973 251.5,206.5C 250.094,206.027 249.427,205.027 249.5,203.5 Z"/></g>
<g><path style="opacity:1" fill="#a2cbf5" d="M 348.5,199.5 C 345.284,210.926 341.617,211.259 337.5,200.5C 339.515,202.214 341.181,204.214 342.5,206.5C 344.846,204.442 346.846,202.109 348.5,199.5 Z"/></g>
<g><path style="opacity:1" fill="#66abef" d="M 272.5,205.5 C 273.906,205.973 274.573,206.973 274.5,208.5C 273.094,208.027 272.427,207.027 272.5,205.5 Z"/></g>
<g><path style="opacity:1" fill="#92c3f3" d="M 253.5,209.5 C 254.906,209.973 255.573,210.973 255.5,212.5C 254.094,212.027 253.427,211.027 253.5,209.5 Z"/></g>
<g><path style="opacity:1" fill="#80b9f2" d="M 255.5,212.5 C 256.906,212.973 257.573,213.973 257.5,215.5C 256.094,215.027 255.427,214.027 255.5,212.5 Z"/></g>
<g><path style="opacity:1" fill="#7dbaf2" d="M 117.5,213.5 C 116.501,267.331 116.168,321.331 116.5,375.5C 116.167,375.5 115.833,375.5 115.5,375.5C 115.5,375.167 115.5,374.833 115.5,374.5C 115.167,320.163 115.5,265.829 116.5,211.5C 117.298,211.957 117.631,212.624 117.5,213.5 Z"/></g>
<g><path style="opacity:1" fill="#4b96eb" d="M 276.5,211.5 C 278.462,214.474 280.462,217.474 282.5,220.5C 280.689,220.428 279.356,219.595 278.5,218C 277.726,215.846 277.059,213.679 276.5,211.5 Z"/></g>
<g><path style="opacity:1" fill="#68acef" d="M 119.5,217.5 C 120.89,218.899 121.89,220.566 122.5,222.5C 120.273,221.599 119.273,219.933 119.5,217.5 Z"/></g>
<g><path style="opacity:1" fill="#75b3f1" d="M 401.5,217.5 C 401.002,220.326 399.669,222.66 397.5,224.5C 398.079,221.669 399.412,219.336 401.5,217.5 Z"/></g>
<g><path style="opacity:1" fill="#6baaef" d="M 122.5,222.5 C 124.771,224.612 126.104,227.279 126.5,230.5C 123.863,228.518 122.53,225.852 122.5,222.5 Z"/></g>
<g><path style="opacity:1" fill="#77b4f1" d="M 397.5,224.5 C 397.573,226.027 396.906,227.027 395.5,227.5C 395.427,225.973 396.094,224.973 397.5,224.5 Z"/></g>
<g><path style="opacity:1" fill="#c2ddf8" d="M 261.5,222.5 C 262.833,223.167 263.833,224.167 264.5,225.5C 265.487,244.424 265.82,263.424 265.5,282.5C 265.167,283.5 264.5,284.167 263.5,284.5C 263.667,265.497 263.5,246.497 263,227.5C 262.392,225.846 261.892,224.179 261.5,222.5 Z"/></g>
<g><path style="opacity:1" fill="#c8e0f9" d="M 181.5,222.5 C 184.444,224.716 186.111,227.716 186.5,231.5C 183.556,229.284 181.889,226.284 181.5,222.5 Z"/></g>
<g><path style="opacity:1" fill="#228ae9" d="M 264.5,225.5 C 265.832,234.642 266.498,244.142 266.5,254C 266.5,263.673 266.166,273.173 265.5,282.5C 265.82,263.424 265.487,244.424 264.5,225.5 Z"/></g>
<g><path style="opacity:1" fill="#60a3ee" d="M 284.5,223.5 C 286.199,225.566 287.532,227.9 288.5,230.5C 286.069,228.954 284.736,226.621 284.5,223.5 Z"/></g>
<g><path style="opacity:1" fill="#68abef" d="M 394.5,229.5 C 394.262,231.404 393.262,232.738 391.5,233.5C 391.738,231.596 392.738,230.262 394.5,229.5 Z"/></g>
<g><path style="opacity:1" fill="#6daff0" d="M 126.5,230.5 C 127.906,230.973 128.573,231.973 128.5,233.5C 127.094,233.027 126.427,232.027 126.5,230.5 Z"/></g>
<g><path style="opacity:1" fill="#7eb8f2" d="M 391.5,233.5 C 391.155,236.198 389.822,238.198 387.5,239.5C 388.34,237.147 389.674,235.147 391.5,233.5 Z"/></g>
<g><path style="opacity:1" fill="#62a7ef" d="M 129.5,235.5 C 131.527,238.22 133.193,241.22 134.5,244.5C 131.681,242.299 130.015,239.299 129.5,235.5 Z"/></g>
<g><path style="opacity:1" fill="#a9cef6" d="M 190.5,237.5 C 191.89,238.899 192.89,240.566 193.5,242.5C 191.241,241.656 190.241,239.989 190.5,237.5 Z"/></g>
<g><path style="opacity:1" fill="#9fcbf5" d="M 386.5,241.5 C 386.068,242.71 385.401,243.71 384.5,244.5C 384.285,242.821 384.952,241.821 386.5,241.5 Z"/></g>
<g><path style="opacity:1" fill="#549bec" d="M 293.5,237.5 C 295.858,240.546 297.858,243.879 299.5,247.5C 295.11,245.717 293.11,242.383 293.5,237.5 Z"/></g>
<g><path style="opacity:1" fill="#87bdf2" d="M 135.5,245.5 C 136.674,246.514 137.34,247.847 137.5,249.5C 135.896,248.713 135.229,247.38 135.5,245.5 Z"/></g>
<g><path style="opacity:1" fill="#7bb6f1" d="M 384.5,244.5 C 384.262,246.404 383.262,247.738 381.5,248.5C 381.738,246.596 382.738,245.262 384.5,244.5 Z"/></g>
<g><path style="opacity:1" fill="#6eaff0" d="M 196.5,248.5 C 197.906,248.973 198.573,249.973 198.5,251.5C 197.094,251.027 196.427,250.027 196.5,248.5 Z"/></g>
<g><path style="opacity:1" fill="#78b5f1" d="M 300.5,249.5 C 301.906,249.973 302.573,250.973 302.5,252.5C 301.094,252.027 300.427,251.027 300.5,249.5 Z"/></g>
<g><path style="opacity:1" fill="#80b9f2" d="M 381.5,248.5 C 381.617,250.484 380.95,252.15 379.5,253.5C 379.863,254.183 380.196,254.85 380.5,255.5C 379.414,255.38 378.747,254.713 378.5,253.5C 379.128,251.555 380.128,249.888 381.5,248.5 Z"/></g>
<g><path style="opacity:1" fill="#5ba2ed" d="M 138.5,251.5 C 141.247,254.723 143.247,258.389 144.5,262.5C 143.542,262.047 142.708,261.381 142,260.5C 140.36,257.639 139.193,254.639 138.5,251.5 Z"/></g>
<g><path style="opacity:1" fill="#6eabf0" d="M 302.5,252.5 C 305.127,255.377 304.794,258.044 301.5,260.5C 302.265,257.904 302.599,255.237 302.5,252.5 Z"/></g>
<g><path style="opacity:1" fill="#94c3f4" d="M 301.5,260.5 C 301.573,262.027 300.906,263.027 299.5,263.5C 299.427,261.973 300.094,260.973 301.5,260.5 Z"/></g>
<g><path style="opacity:1" fill="#8dc0f3" d="M 144.5,262.5 C 145.906,262.973 146.573,263.973 146.5,265.5C 145.094,265.027 144.427,264.027 144.5,262.5 Z"/></g>
<g><path style="opacity:1" fill="#b8d7f7" d="M 298.5,265.5 C 296.467,268.563 294.801,271.896 293.5,275.5C 292.643,276.425 291.643,277.092 290.5,277.5C 292.462,274.815 293.962,271.815 295,268.5C 296.039,267.29 297.206,266.29 298.5,265.5 Z"/></g>
<g><path style="opacity:1" fill="#64abef" d="M 151.5,275.5 C 153.104,276.287 153.771,277.62 153.5,279.5C 152.326,278.486 151.66,277.153 151.5,275.5 Z"/></g>
<g><path style="opacity:1" fill="#a1cbf5" d="M 287.5,282.5 C 287.262,284.404 286.262,285.738 284.5,286.5C 284.738,284.596 285.738,283.262 287.5,282.5 Z"/></g>
<g><path style="opacity:1" fill="#6badf0" d="M 156.5,284.5 C 157.906,284.973 158.573,285.973 158.5,287.5C 157.094,287.027 156.427,286.027 156.5,284.5 Z"/></g>
<g><path style="opacity:1" fill="#76b4f1" d="M 263.5,284.5 C 263.771,286.38 263.104,287.713 261.5,288.5C 261.66,286.847 262.326,285.514 263.5,284.5 Z"/></g>
<g><path style="opacity:1" fill="#84bbf2" d="M 284.5,286.5 C 284.155,289.198 282.822,291.198 280.5,292.5C 281.34,290.147 282.674,288.147 284.5,286.5 Z"/></g>
<g><path style="opacity:1" fill="#7bb7f1" d="M 159.5,289.5 C 161.104,290.287 161.771,291.62 161.5,293.5C 160.326,292.486 159.66,291.153 159.5,289.5 Z"/></g>
<g><path style="opacity:1" fill="#98c6f4" d="M 404.5,294.5 C 406.262,295.262 407.262,296.596 407.5,298.5C 405.738,297.738 404.738,296.404 404.5,294.5 Z"/></g>
<g><path style="opacity:1" fill="#7fb9f2" d="M 407.5,298.5 C 408.906,298.973 409.573,299.973 409.5,301.5C 408.094,301.027 407.427,300.027 407.5,298.5 Z"/></g>
<g><path style="opacity:1" fill="#68acef" d="M 342.5,303.5 C 340.602,302.266 338.935,302.599 337.5,304.5C 337.712,302.616 338.712,301.283 340.5,300.5C 341.919,301.005 342.585,302.005 342.5,303.5 Z"/></g>
<g><path style="opacity:1" fill="#8abef3" d="M 277.5,297.5 C 275.822,302.197 273.156,306.197 269.5,309.5C 271.673,305.148 274.34,301.148 277.5,297.5 Z"/></g>
<g><path style="opacity:1" fill="#53a0ed" d="M 409.5,301.5 C 411.741,302.3 412.741,303.966 412.5,306.5C 411.11,305.101 410.11,303.434 409.5,301.5 Z"/></g>
<g><path style="opacity:1" fill="#5aa1ed" d="M 166.5,301.5 C 167.492,303.456 168.492,305.456 169.5,307.5C 167.025,306.313 166.025,304.313 166.5,301.5 Z"/></g>
<g><path style="opacity:1" fill="#71b0f0" d="M 252.5,302.5 C 252.262,304.404 251.262,305.738 249.5,306.5C 249.738,304.596 250.738,303.262 252.5,302.5 Z"/></g>
<g><path style="opacity:1" fill="#589fed" d="M 337.5,304.5 C 337.401,307.639 336.068,309.973 333.5,311.5C 334.079,308.669 335.412,306.336 337.5,304.5 Z"/></g>
<g><path style="opacity:1" fill="#84bbf2" d="M 412.5,306.5 C 413.906,306.973 414.573,307.973 414.5,309.5C 413.094,309.027 412.427,308.027 412.5,306.5 Z"/></g>
<g><path style="opacity:1" fill="#569ced" d="M 342.5,303.5 C 344.162,306.12 345.828,308.787 347.5,311.5C 344.374,309.84 342.707,307.174 342.5,303.5 Z"/></g>
<g><path style="opacity:1" fill="#78b3f1" d="M 247.5,310.5 C 246.92,312.749 245.587,314.415 243.5,315.5C 244.08,313.251 245.413,311.585 247.5,310.5 Z"/></g>
<g><path style="opacity:1" fill="#89bdf3" d="M 268.5,311.5 C 268.262,313.404 267.262,314.738 265.5,315.5C 265.738,313.596 266.738,312.262 268.5,311.5 Z"/></g>
<g><path style="opacity:1" fill="#8ec1f3" d="M 347.5,311.5 C 348.906,311.973 349.573,312.973 349.5,314.5C 348.833,314.167 348.167,313.833 347.5,313.5C 347.5,312.833 347.5,312.167 347.5,311.5 Z"/></g>
<g><path style="opacity:1" fill="#549bed" d="M 333.5,311.5 C 333.408,313.848 332.408,315.514 330.5,316.5C 330.75,314.326 331.75,312.659 333.5,311.5 Z"/></g>
<g><path style="opacity:1" fill="#acd1f6" d="M 415.5,311.5 C 417.942,313.121 419.275,315.454 419.5,318.5C 417.801,316.434 416.468,314.1 415.5,311.5 Z"/></g>
<g><path style="opacity:1" fill="#71b1f0" d="M 243.5,315.5 C 243.771,317.38 243.104,318.713 241.5,319.5C 241.66,317.847 242.326,316.514 243.5,315.5 Z"/></g>
<g><path style="opacity:1" fill="#68abef" d="M 330.5,316.5 C 330.25,318.674 329.25,320.341 327.5,321.5C 327.75,319.326 328.75,317.659 330.5,316.5 Z"/></g>
<g><path style="opacity:1" fill="#9ec8f4" d="M 265.5,315.5 C 265.408,317.848 264.408,319.514 262.5,320.5C 262.75,318.326 263.75,316.659 265.5,315.5 Z"/></g>
<g><path style="opacity:1" fill="#85bcf2" d="M 175.5,318.5 C 176.906,318.973 177.573,319.973 177.5,321.5C 176.094,321.027 175.427,320.027 175.5,318.5 Z"/></g>
<g><path style="opacity:1" fill="#9ec8f5" d="M 419.5,318.5 C 422.632,320.203 424.299,322.87 424.5,326.5C 422.838,323.88 421.172,321.213 419.5,318.5 Z"/></g>
<g><path style="opacity:1" fill="#9ecaf5" d="M 239.5,322.5 C 239.068,323.71 238.401,324.71 237.5,325.5C 237.285,323.821 237.952,322.821 239.5,322.5 Z"/></g>
<g><path style="opacity:1" fill="#569fed" d="M 347.5,313.5 C 348.167,313.833 348.833,314.167 349.5,314.5C 352.618,318.941 355.284,323.607 357.5,328.5C 353.437,324.058 350.104,319.058 347.5,313.5 Z"/></g>
<g><path style="opacity:1" fill="#78b4f1" d="M 259.5,325.5 C 258.551,327.777 257.218,329.777 255.5,331.5C 255.622,328.708 256.956,326.708 259.5,325.5 Z"/></g>
<g><path style="opacity:1" fill="#509bec" d="M 325.5,324.5 C 324.78,328.731 322.78,332.064 319.5,334.5C 321,330.827 323,327.494 325.5,324.5 Z"/></g>
<g><path style="opacity:1" fill="#5ea0ee" d="M 237.5,325.5 C 235.386,328.839 234.053,332.505 233.5,336.5C 232.041,336.433 230.708,336.766 229.5,337.5C 231.178,332.803 233.844,328.803 237.5,325.5 Z"/></g>
<g><path style="opacity:1" fill="#7eb8f2" d="M 317.5,337.5 C 317.573,339.027 316.906,340.027 315.5,340.5C 315.427,338.973 316.094,337.973 317.5,337.5 Z"/></g>
<g><path style="opacity:1" fill="#58a0ed" d="M 184.5,334.5 C 186.403,337.299 188.069,340.299 189.5,343.5C 186.54,341.348 184.873,338.348 184.5,334.5 Z"/></g>
<g><path style="opacity:1" fill="#6daaef" d="M 432.5,338.5 C 433.482,339.141 434.482,339.807 435.5,340.5C 436.507,343.457 437.841,346.124 439.5,348.5C 438.526,347.365 437.359,346.365 436,345.5C 435.319,342.804 434.152,340.471 432.5,338.5 Z"/></g>
<g><path style="opacity:1" fill="#6caaef" d="M 229.5,337.5 C 229.108,339.179 228.608,340.846 228,342.5C 225.759,345.779 223.259,348.779 220.5,351.5C 222.568,347.48 224.734,343.48 227,339.5C 227.708,338.619 228.542,337.953 229.5,337.5 Z"/></g>
<g><path style="opacity:1" fill="#b4d4f7" d="M 251.5,337.5 C 251.408,339.848 250.408,341.514 248.5,342.5C 248.75,340.326 249.75,338.659 251.5,337.5 Z"/></g>
<g><path style="opacity:1" fill="#96c5f4" d="M 248.5,342.5 C 248.573,344.027 247.906,345.027 246.5,345.5C 246.427,343.973 247.094,342.973 248.5,342.5 Z"/></g>
<g><path style="opacity:1" fill="#549ced" d="M 361.5,335.5 C 365.041,338.379 367.374,342.046 368.5,346.5C 364.805,343.789 362.472,340.122 361.5,335.5 Z"/></g>
<g><path style="opacity:1" fill="#89bef3" d="M 246.5,345.5 C 246.573,347.027 245.906,348.027 244.5,348.5C 244.427,346.973 245.094,345.973 246.5,345.5 Z"/></g>
<g><path style="opacity:1" fill="#66a9ef" d="M 189.5,343.5 C 191.245,345.033 192.245,347.033 192.5,349.5C 190.755,347.967 189.755,345.967 189.5,343.5 Z"/></g>
<g><path style="opacity:1" fill="#69adef" d="M 369.5,348.5 C 370.906,348.973 371.573,349.973 371.5,351.5C 370.094,351.027 369.427,350.027 369.5,348.5 Z"/></g>
<g><path style="opacity:1" fill="#6eaff0" d="M 192.5,349.5 C 193.906,349.973 194.573,350.973 194.5,352.5C 193.094,352.027 192.427,351.027 192.5,349.5 Z"/></g>
<g><path style="opacity:1" fill="#b8d7f7" d="M 244.5,348.5 C 244.408,350.848 243.408,352.514 241.5,353.5C 241.75,351.326 242.75,349.659 244.5,348.5 Z"/></g>
<g><path style="opacity:1" fill="#73b2f1" d="M 309.5,350.5 C 309.573,352.027 308.906,353.027 307.5,353.5C 307.427,351.973 308.094,350.973 309.5,350.5 Z"/></g>
<g><path style="opacity:1" fill="#91c3f4" d="M 220.5,351.5 C 220.573,353.027 219.906,354.027 218.5,354.5C 218.427,352.973 219.094,351.973 220.5,351.5 Z"/></g>
<g><path style="opacity:1" fill="#91c4f4" d="M 441.5,352.5 C 442.906,352.973 443.573,353.973 443.5,355.5C 442.094,355.027 441.427,354.027 441.5,352.5 Z"/></g>
<g><path style="opacity:1" fill="#8dc0f3" d="M 241.5,353.5 C 241.262,355.404 240.262,356.738 238.5,357.5C 238.738,355.596 239.738,354.262 241.5,353.5 Z"/></g>
<g><path style="opacity:1" fill="#6aacef" d="M 307.5,353.5 C 307.378,356.292 306.044,358.292 303.5,359.5C 304.449,357.223 305.782,355.223 307.5,353.5 Z"/></g>
<g><path style="opacity:1" fill="#61a5ee" d="M 196.5,356.5 C 198.942,358.121 200.275,360.454 200.5,363.5C 198.058,361.879 196.725,359.546 196.5,356.5 Z"/></g>
<g><path style="opacity:1" fill="#6eaef0" d="M 375.5,357.5 C 377.245,359.033 378.245,361.033 378.5,363.5C 376.755,361.967 375.755,359.967 375.5,357.5 Z"/></g>
<g><path style="opacity:1" fill="#6daff0" d="M 378.5,363.5 C 379.906,363.973 380.573,364.973 380.5,366.5C 379.094,366.027 378.427,365.027 378.5,363.5 Z"/></g>
<g><path style="opacity:1" fill="#599fed" d="M 200.5,363.5 C 202.588,365.336 203.921,367.669 204.5,370.5C 201.932,368.973 200.599,366.639 200.5,363.5 Z"/></g>
<g><path style="opacity:1" fill="#5da1ed" d="M 211.5,365.5 C 211.408,367.848 210.408,369.514 208.5,370.5C 208.75,368.326 209.75,366.659 211.5,365.5 Z"/></g>
<g><path style="opacity:1" fill="#519bec" d="M 299.5,366.5 C 299.245,368.967 298.245,370.967 296.5,372.5C 296.755,370.033 297.755,368.033 299.5,366.5 Z"/></g>
<g><path style="opacity:1" fill="#9fcaf5" d="M 451.5,368.5 C 452.906,368.973 453.573,369.973 453.5,371.5C 452.094,371.027 451.427,370.027 451.5,368.5 Z"/></g>
<g><path style="opacity:1" fill="#91c4f4" d="M 228.5,372.5 C 250.141,374.489 272.141,375.156 294.5,374.5C 283.505,375.167 272.338,375.5 261,375.5C 249.479,375.499 238.313,374.832 227.5,373.5C 227.5,372.833 227.833,372.5 228.5,372.5 Z"/></g>
<g><path style="opacity:1" fill="#94c6f4" d="M 453.5,371.5 C 455.104,372.287 455.771,373.62 455.5,375.5C 431.994,375.831 408.661,375.498 385.5,374.5C 408.502,374.667 431.502,374.5 454.5,374C 453.748,373.329 453.414,372.496 453.5,371.5 Z"/></g>
<g><path style="opacity:1" fill="#248ae9" d="M 295.5,372.5 C 295.5,373.833 295.5,375.167 295.5,376.5C 272.5,376.5 249.5,376.5 226.5,376.5C 226.263,375.209 226.596,374.209 227.5,373.5C 238.313,374.832 249.479,375.499 261,375.5C 272.338,375.5 283.505,375.167 294.5,374.5C 294.328,373.508 294.662,372.842 295.5,372.5 Z"/></g>
<g><path style="opacity:1" fill="#278be9" d="M 383.5,371.5 C 384.906,371.973 385.573,372.973 385.5,374.5C 408.661,375.498 431.994,375.831 455.5,375.5C 432.006,376.498 408.339,376.831 384.5,376.5C 384.371,374.784 384.038,373.117 383.5,371.5 Z"/></g>
</svg>
